<?xml version="1.0" encoding="UTF-8" standalone="no"?>
<svg width="20px" height="20px" viewBox="0 0 20 20" version="1.1" xmlns="http://www.w3.org/2000/svg" xmlns:xlink="http://www.w3.org/1999/xlink">
    <!-- Generator: Sketch 3.7.2 (28276) - http://www.bohemiancoding.com/sketch -->
    <title>attachment</title>
    <desc>Created with Sketch.</desc>
    <defs></defs>
    <g id="Page-1" stroke="none" stroke-width="1" fill="none" fill-rule="evenodd">
        <g id="attachment" fill="#000000">
            <path d="M15,3 L7,3 C3.13400675,3 0,6.13400675 0,10 C0,13.8659932 3.13400675,17 7,17 L15,17 L15,15 L9.44949137,15 L7,15 C4.23857625,15 2,12.7614237 2,10 C2,7.23857625 4.23857625,5 7,5 L9.44949137,5 L12.9998169,5 L15,5 C16.6568542,5 18,6.34314575 18,8 C18,9.65685425 16.6568542,11 15,11 L12.9998169,11 L8.41464715,11 L7,11 C6.44771525,11 6,10.5522847 6,10 C6,9.44771525 6.44771525,9 7,9 L8.41464715,9 L15,9 L15,7 L7,7 C5.34314575,7 4,8.34314575 4,10 C4,11.6568542 5.34314575,13 7,13 L15,13 C17.7614237,13 20,10.7614237 20,8 C20,5.23857625 17.7614237,3 15,3 Z" id="Combined-Shape"></path>
        </g>
    </g>
</svg>