<?xml version="1.0" encoding="UTF-8" standalone="no"?>
<svg width="20px" height="20px" viewBox="0 0 20 20" version="1.1" xmlns="http://www.w3.org/2000/svg" xmlns:xlink="http://www.w3.org/1999/xlink">
    <!-- Generator: Sketch 3.7.2 (28276) - http://www.bohemiancoding.com/sketch -->
    <title>block</title>
    <desc>Created with Sketch.</desc>
    <defs></defs>
    <g id="Page-1" stroke="none" stroke-width="1" fill="none" fill-rule="evenodd">
        <g id="block" fill="#000000">
            <path d="M16.3198574,5.09435615 C17.3729184,6.44903985 18,8.15128855 18,10 C18,14.418278 14.418278,18 10,18 C8.15128855,18 6.44903985,17.3729184 5.09435615,16.3198574 L16.3198574,5.09435615 L16.3198574,5.09435615 Z M14.9056439,3.68014258 C13.5509601,2.62708161 11.8487115,2 10,2 C5.581722,2 2,5.581722 2,10 C2,11.8487115 2.62708161,13.5509601 3.68014258,14.9056439 L14.9056439,3.68014258 L14.9056439,3.68014258 Z M0,10 C3.55271368e-15,15.5228475 4.4771525,20 10,20 C15.5228475,20 20,15.5228475 20,10 C20,4.4771525 15.5228475,1.77635684e-15 10,0 C4.4771525,-8.8817842e-16 5.32907052e-15,4.4771525 0,10 L0,10 Z" id="Combined-Shape"></path>
        </g>
    </g>
</svg>