<?xml version="1.0" encoding="UTF-8" standalone="no"?>
<svg width="20px" height="20px" viewBox="0 0 20 20" version="1.1" xmlns="http://www.w3.org/2000/svg" xmlns:xlink="http://www.w3.org/1999/xlink">
    <!-- Generator: Sketch 3.7.2 (28276) - http://www.bohemiancoding.com/sketch -->
    <title>bluetooth</title>
    <desc>Created with Sketch.</desc>
    <defs></defs>
    <g id="Page-1" stroke="none" stroke-width="1" fill="none" fill-rule="evenodd">
        <g id="bluetooth" fill="#000000">
            <path d="M9.41421356,5.55111512e-17 L14.3535534,4.93933983 L15.4142136,6 L14.3535534,7.06066017 L11.4142136,10 L14.3535534,12.9393398 L15.4142136,14 L14.3535534,15.0606602 L9.41421356,20 L9,20 L9,17.2928932 L9,12.4142136 L5.70710678,15.7071068 L4.29289322,14.2928932 L8.58578644,10 L4.29289322,5.70710678 L5.70710678,4.29289322 L9,7.58578644 L9,2.70710678 L9,0 L9.41421356,0 Z M11,4.41421356 L11,7.58578644 L12.5857864,6 L11,4.41421356 Z M12.5857864,14 L11,15.5857864 L11,12.4142136 L12.5857864,14 Z" id="Combined-Shape"></path>
        </g>
    </g>
</svg>