<?xml version="1.0" encoding="UTF-8" standalone="no"?>
<svg width="20px" height="20px" viewBox="0 0 20 20" version="1.1" xmlns="http://www.w3.org/2000/svg" xmlns:xlink="http://www.w3.org/1999/xlink">
    <!-- Generator: Sketch 3.7.2 (28276) - http://www.bohemiancoding.com/sketch -->
    <title>border-top</title>
    <desc>Created with Sketch.</desc>
    <defs></defs>
    <g id="Page-1" stroke="none" stroke-width="1" fill="none" fill-rule="evenodd">
        <g id="border-top" fill="#000000">
            <path d="M1,1 L19,1 L19,3 L1,3 L1,1 Z M1,5 L3,5 L3,7 L1,7 L1,5 Z M1,9 L3,9 L3,11 L1,11 L1,9 Z M1,13 L3,13 L3,15 L1,15 L1,13 Z M1,17 L3,17 L3,19 L1,19 L1,17 Z M5,9 L7,9 L7,11 L5,11 L5,9 Z M5,17 L7,17 L7,19 L5,19 L5,17 Z M9,5 L11,5 L11,7 L9,7 L9,5 Z M9,9 L11,9 L11,11 L9,11 L9,9 Z M9,13 L11,13 L11,15 L9,15 L9,13 Z M9,17 L11,17 L11,19 L9,19 L9,17 Z M13,9 L15,9 L15,11 L13,11 L13,9 Z M13,17 L15,17 L15,19 L13,19 L13,17 Z M17,5 L19,5 L19,7 L17,7 L17,5 Z M17,9 L19,9 L19,11 L17,11 L17,9 Z M17,13 L19,13 L19,15 L17,15 L17,13 Z M17,17 L19,17 L19,19 L17,19 L17,17 Z" id="Combined-Shape"></path>
        </g>
    </g>
</svg>