<?xml version="1.0" encoding="UTF-8" standalone="no"?>
<svg width="20px" height="20px" viewBox="0 0 20 20" version="1.1" xmlns="http://www.w3.org/2000/svg" xmlns:xlink="http://www.w3.org/1999/xlink">
    <!-- Generator: Sketch 3.7.2 (28276) - http://www.bohemiancoding.com/sketch -->
    <title>calculator</title>
    <desc>Created with Sketch.</desc>
    <defs></defs>
    <g id="Page-1" stroke="none" stroke-width="1" fill="none" fill-rule="evenodd">
        <g id="calculator" fill="#000000">
            <path d="M2,1.99079514 C2,0.891309342 2.89451376,0 3.99406028,0 L16.0059397,0 C17.1072288,0 18,0.898212381 18,1.99079514 L18,18.0092049 C18,19.1086907 17.1054862,20 16.0059397,20 L3.99406028,20 C2.8927712,20 2,19.1017876 2,18.0092049 L2,1.99079514 Z M5,3 L15,3 L15,5 L5,5 L5,3 Z M5,7 L7,7 L7,9 L5,9 L5,7 Z M9,7 L11,7 L11,9 L9,9 L9,7 Z M13,7 L15,7 L15,9 L13,9 L13,7 Z M5,11 L7,11 L7,13 L5,13 L5,11 Z M9,11 L11,11 L11,13 L9,13 L9,11 Z M13,11 L15,11 L15,17 L13,17 L13,11 Z M5,15 L7,15 L7,17 L5,17 L5,15 Z M9,15 L11,15 L11,17 L9,17 L9,15 Z" id="Combined-Shape"></path>
        </g>
    </g>
</svg>