<?xml version="1.0" encoding="UTF-8" standalone="no"?>
<svg width="20px" height="20px" viewBox="0 0 20 20" version="1.1" xmlns="http://www.w3.org/2000/svg" xmlns:xlink="http://www.w3.org/1999/xlink">
    <!-- Generator: Sketch 3.7.2 (28276) - http://www.bohemiancoding.com/sketch -->
    <title>dots-horizontal-triple</title>
    <desc>Created with Sketch.</desc>
    <defs></defs>
    <g id="Page-1" stroke="none" stroke-width="1" fill="none" fill-rule="evenodd">
        <g id="dots-horizontal-triple" fill="#000000">
            <path d="M10,12 C11.1045695,12 12,11.1045695 12,10 C12,8.8954305 11.1045695,8 10,8 C8.8954305,8 8,8.8954305 8,10 C8,11.1045695 8.8954305,12 10,12 Z M10,6 C11.1045695,6 12,5.1045695 12,4 C12,2.8954305 11.1045695,2 10,2 C8.8954305,2 8,2.8954305 8,4 C8,5.1045695 8.8954305,6 10,6 Z M10,18 C11.1045695,18 12,17.1045695 12,16 C12,14.8954305 11.1045695,14 10,14 C8.8954305,14 8,14.8954305 8,16 C8,17.1045695 8.8954305,18 10,18 Z" id="Combined-Shape"></path>
        </g>
    </g>
</svg>