<?xml version="1.0" encoding="UTF-8" standalone="no"?>
<svg width="20px" height="20px" viewBox="0 0 20 20" version="1.1" xmlns="http://www.w3.org/2000/svg" xmlns:xlink="http://www.w3.org/1999/xlink">
    <!-- Generator: Sketch 3.7.2 (28276) - http://www.bohemiancoding.com/sketch -->
    <title>edit-cut</title>
    <desc>Created with Sketch.</desc>
    <defs></defs>
    <g id="Page-1" stroke="none" stroke-width="1" fill="none" fill-rule="evenodd">
        <g id="edit-cut" fill="#000000">
            <path d="M7.72727273,10 L5.50418223,8.36973364 C4.93647557,8.76695004 4.24545365,9 3.5,9 C1.56700338,9 0,7.43299662 0,5.5 C0,3.56700338 1.56700338,2 3.5,2 C5.43299662,2 7,3.56700338 7,5.5 C7,5.8054093 6.9608824,6.10168219 6.88738415,6.38408171 L20,16 L16.8993859,16 C16.3468898,16 15.5512863,15.73761 15.109912,15.4139355 L9.77272727,11.5 L6.88738415,13.6159183 C6.9608824,13.8983178 7,14.1945907 7,14.5 C7,16.4329966 5.43299662,18 3.5,18 C1.56700338,18 0,16.4329966 0,14.5 C0,12.5670034 1.56700338,11 3.5,11 C4.24545365,11 4.93647557,11.23305 5.50418223,11.6302664 L7.72727273,10 Z M3.5,7 C4.32842712,7 5,6.32842712 5,5.5 C5,4.67157288 4.32842712,4 3.5,4 C2.67157288,4 2,4.67157288 2,5.5 C2,6.32842712 2.67157288,7 3.5,7 Z M3.5,16 C4.32842712,16 5,15.3284271 5,14.5 C5,13.6715729 4.32842712,13 3.5,13 C2.67157288,13 2,13.6715729 2,14.5 C2,15.3284271 2.67157288,16 3.5,16 Z M15.1042539,4.59021378 C15.5487531,4.26424771 16.3468898,4 16.8993859,4 L20,4 L12.5,9.5 L10.4545455,8 L15.1042539,4.59021378 Z" id="Combined-Shape"></path>
        </g>
    </g>
</svg>