<?xml version="1.0" encoding="UTF-8" standalone="no"?>
<svg width="20px" height="20px" viewBox="0 0 20 20" version="1.1" xmlns="http://www.w3.org/2000/svg" xmlns:xlink="http://www.w3.org/1999/xlink">
    <!-- Generator: Sketch 3.7.2 (28276) - http://www.bohemiancoding.com/sketch -->
    <title>location-gas-station</title>
    <desc>Created with Sketch.</desc>
    <defs></defs>
    <g id="Page-1" stroke="none" stroke-width="1" fill="none" fill-rule="evenodd">
        <g id="location-gas-station" fill="#000000">
            <path d="M13,18 L13,1.99079514 C13,0.898212381 12.1007504,0 10.9914698,0 L3.0085302,0 C1.90195036,0 1,0.891309342 1,1.99079514 L1,18 L0,18 L0,20 L14,20 L14,18 L13,18 Z M3,2 L11,2 L11,8 L3,8 L3,2 Z M13,10 L13.9989566,10 C15.1041023,10 16,10.8982606 16,11.9979131 L16,15.009222 C16,15.5564136 16.4438648,16 17,16 C17.5522847,16 18,15.5490248 18,15.009222 L18,10 L16,8 L16,6 L14,4 L15,3 L20,8 L20,14.9996703 C20,16.6567066 18.6534829,18 17,18 C15.3431458,18 14,16.6534829 14,15 L14,12 L13,12 L13,10 Z" id="Combined-Shape"></path>
        </g>
    </g>
</svg>