<?xml version="1.0" encoding="UTF-8" standalone="no"?>
<svg width="20px" height="20px" viewBox="0 0 20 20" version="1.1" xmlns="http://www.w3.org/2000/svg" xmlns:xlink="http://www.w3.org/1999/xlink">
    <!-- Generator: Sketch 3.7.2 (28276) - http://www.bohemiancoding.com/sketch -->
    <title>location-park</title>
    <desc>Created with Sketch.</desc>
    <defs></defs>
    <g id="Page-1" stroke="none" stroke-width="1" fill="none" fill-rule="evenodd">
        <g id="location-park" fill="#000000">
            <path d="M5.32879292,12.7739941 C4.91303808,12.9203753 4.46581771,13 4,13 C1.790861,13 0,11.209139 0,9 C0,7.13546489 1.27572458,5.56889123 3.00193201,5.12552074 C3.00064714,5.08383793 3,5.04199454 3,5 C3,2.790861 4.790861,1 7,1 C7.6125701,1 8.19297913,1.13769792 8.71196287,1.38382955 C9.35121436,0.542920669 10.3622042,0 11.5,0 C13.2785299,0 14.7472229,1.32656978 14.9705937,3.04422414 C16.0035031,3.2409672 16.8111108,4.07322818 16.9711059,5.11869618 C18.710975,5.55260884 20,7.12577046 20,9 C20,11.209139 18.209139,13 16,13 C15.3794264,13 14.7918597,12.8586804 14.2677264,12.6064675 C13.7349639,13.4769303 12.9433663,14.171782 12,14.5839563 L12,18 L14,19 L14,20 L6,20 L6,19 L8,18 L8,15 L5.32879292,12.7739941 L5.32879292,12.7739941 Z M5,10 L8,10 L8,13 L5,10 Z" id="Combined-Shape"></path>
        </g>
    </g>
</svg>