<?xml version="1.0" encoding="UTF-8" standalone="no"?>
<svg width="20px" height="20px" viewBox="0 0 20 20" version="1.1" xmlns="http://www.w3.org/2000/svg" xmlns:xlink="http://www.w3.org/1999/xlink">
    <!-- Generator: Sketch 3.7.2 (28276) - http://www.bohemiancoding.com/sketch -->
    <title>mood-happy</title>
    <desc>Created with Sketch.</desc>
    <defs></defs>
    <g id="Page-1" stroke="none" stroke-width="1" fill="none" fill-rule="evenodd">
        <g id="mood-happy" fill="#000000">
            <path d="M10,20 C15.5228475,20 20,15.5228475 20,10 C20,4.4771525 15.5228475,0 10,0 C4.4771525,0 0,4.4771525 0,10 C0,15.5228475 4.4771525,20 10,20 Z M10,18 C14.418278,18 18,14.418278 18,10 C18,5.581722 14.418278,2 10,2 C5.581722,2 2,5.581722 2,10 C2,14.418278 5.581722,18 10,18 Z M6.5,9 C7.32842712,9 8,8.32842712 8,7.5 C8,6.67157288 7.32842712,6 6.5,6 C5.67157288,6 5,6.67157288 5,7.5 C5,8.32842712 5.67157288,9 6.5,9 Z M13.5,9 C14.3284271,9 15,8.32842712 15,7.5 C15,6.67157288 14.3284271,6 13.5,6 C12.6715729,6 12,6.67157288 12,7.5 C12,8.32842712 12.6715729,9 13.5,9 Z M15.6585886,12 C14.8349158,14.3303847 12.6124377,16 10,16 C7.38756235,16 5.16508423,14.3303847 4.34141142,12 L15.6585886,12 L15.6585886,12 Z" id="Combined-Shape"></path>
        </g>
    </g>
</svg>