<?xml version="1.0" encoding="UTF-8" standalone="no"?>
<svg width="20px" height="20px" viewBox="0 0 20 20" version="1.1" xmlns="http://www.w3.org/2000/svg" xmlns:xlink="http://www.w3.org/1999/xlink">
    <!-- Generator: Sketch 3.7.2 (28276) - http://www.bohemiancoding.com/sketch -->
    <title>printer</title>
    <desc>Created with Sketch.</desc>
    <defs></defs>
    <g id="Page-1" stroke="none" stroke-width="1" fill="none" fill-rule="evenodd">
        <g id="printer" fill="#000000">
            <path d="M16,16 L20,16 L20,6 L0,6 L0,16 L4,16 L4,10 L16,10 L16,16 Z M4,10 L16,10 L16,20 L4,20 L4,10 Z M6,12 L14,12 L14,18 L6,18 L6,12 Z M4,0 L16,0 L16,5 L4,5 L4,0 Z M2,8 L4,8 L4,10 L2,10 L2,8 Z M6,8 L8,8 L8,10 L6,10 L6,8 Z" id="Combined-Shape"></path>
        </g>
    </g>
</svg>