<?xml version="1.0" encoding="UTF-8" standalone="no"?>
<svg width="20px" height="20px" viewBox="0 0 20 20" version="1.1" xmlns="http://www.w3.org/2000/svg" xmlns:xlink="http://www.w3.org/1999/xlink">
    <!-- Generator: Sketch 3.7.2 (28276) - http://www.bohemiancoding.com/sketch -->
    <title>radar copy 2</title>
    <desc>Created with Sketch.</desc>
    <defs></defs>
    <g id="Page-1" stroke="none" stroke-width="1" fill="none" fill-rule="evenodd">
        <g id="radar-copy-2" fill="#000000">
            <path d="M12,10 L20,10 C20,7.44077682 19.0236893,4.88155365 17.0710678,2.92893219 C15.1184464,0.976310729 12.5592232,1.63312031e-10 10,1.63311142e-10 L10,8 C9.48815536,8 8.97631073,8.19526215 8.58578644,8.58578644 C7.80473785,9.36683502 7.80473785,10.633165 8.58578644,11.4142136 C9.36683502,12.1952621 10.633165,12.1952621 11.4142136,11.4142136 C11.8047379,11.0236893 12,10.5118446 12,10 L12,10 Z M19.9000864,11.4142136 C19.6060539,13.4838873 18.6630477,15.4790879 17.0710678,17.0710678 C13.1658249,20.9763107 6.83417511,20.9763107 2.92893219,17.0710678 C-0.976310729,13.1658249 -0.976310729,6.83417511 2.92893219,2.92893219 C4.52091212,1.33695225 6.51611265,0.39394606 8.58578644,0.0999136115 L8.58578644,2.12527585 C7.03175841,2.40295389 5.54404764,3.14224386 4.34314575,4.34314575 C1.21895142,7.46734008 1.21895142,12.5326599 4.34314575,15.6568542 C7.46734008,18.7810486 12.5326599,18.7810486 15.6568542,15.6568542 C16.8577561,14.4559524 17.5970461,12.9682416 17.8747242,11.4142136 L19.9000864,11.4142136 L19.9000864,11.4142136 Z M15.8318407,11.4142136 C15.5815375,12.4506982 15.0518041,13.4334772 14.2426407,14.2426407 C11.8994949,16.5857864 8.10050506,16.5857864 5.75735931,14.2426407 C3.41421356,11.8994949 3.41421356,8.10050506 5.75735931,5.75735931 C6.56652277,4.94819586 7.54930184,4.41846252 8.58578644,4.16815931 L8.58578644,6.25729053 C8.07014061,6.45178392 7.58660105,6.7565447 7.17157288,7.17157288 C5.60947571,8.73367004 5.60947571,11.26633 7.17157288,12.8284271 C8.73367004,14.3905243 11.26633,14.3905243 12.8284271,12.8284271 C13.2434553,12.4133989 13.5482161,11.9298594 13.7427095,11.4142136 L15.8318407,11.4142136 L15.8318407,11.4142136 Z" id="Combined-Shape"></path>
        </g>
    </g>
</svg>