<?xml version="1.0" encoding="UTF-8" standalone="no"?>
<svg width="20px" height="20px" viewBox="0 0 20 20" version="1.1" xmlns="http://www.w3.org/2000/svg" xmlns:xlink="http://www.w3.org/1999/xlink">
    <!-- Generator: Sketch 3.7.2 (28276) - http://www.bohemiancoding.com/sketch -->
    <title>shuffle</title>
    <desc>Created with Sketch.</desc>
    <defs></defs>
    <g id="Page-1" stroke="none" stroke-width="1" fill="none" fill-rule="evenodd">
        <g id="shuffle" fill="#000000">
            <path d="M6.58578644,12.8284271 L4.41028736,15.0039262 C3.83091964,15.5832939 2.81955537,16 2.00104344,16 L0,16 L0,14 L2.00104344,14 C2.29046199,14 2.79273472,13.7930517 2.9960738,13.5897126 L5.17157288,11.4142136 L6.58578644,12.8284271 L6.58578644,12.8284271 Z M16,6 L13.9998075,6 C13.7100858,6 13.2055579,6.20865568 13.0039262,6.41028736 L10.8284271,8.58578644 L10.8284271,8.58578644 L9.41421356,7.17157288 L11.5897126,4.9960738 C12.1666986,4.41908781 13.1800499,4 13.9998075,4 L16,4 L16,1 L20,5 L16,9 L16,6 Z M16,16 L13.9998075,16 C13.1800499,16 12.1666986,15.5809122 11.5897126,15.0039262 L2.9960738,6.41028736 C2.79273472,6.20694828 2.29046199,6 2.00104344,6 L0,6 L0,4 L2.00104344,4 C2.81955537,4 3.83091964,4.41670608 4.41028736,4.9960738 L13.0039262,13.5897126 C13.2055579,13.7913443 13.7100858,14 13.9998075,14 L16,14 L16,11 L20,15 L16,19 L16,16 Z" id="Combined-Shape"></path>
        </g>
    </g>
</svg>