<?xml version="1.0" encoding="UTF-8" standalone="no"?>
<svg width="20px" height="20px" viewBox="0 0 20 20" version="1.1" xmlns="http://www.w3.org/2000/svg" xmlns:xlink="http://www.w3.org/1999/xlink">
    <!-- Generator: Sketch 3.7.2 (28276) - http://www.bohemiancoding.com/sketch -->
    <title>thermometer</title>
    <desc>Created with Sketch.</desc>
    <defs></defs>
    <g id="Page-1" stroke="none" stroke-width="1" fill="none" fill-rule="evenodd">
        <g id="thermometer" fill="#000000">
            <path d="M11,11.1707057 C12.1651924,11.5825421 13,12.6937812 13,14 C13,15.6568542 11.6568542,17 10,17 C8.34314575,17 7,15.6568542 7,14 C7,12.6937812 7.83480763,11.5825421 9,11.1707057 L9,7 L11,7 L11,11.1707057 Z M12,10.5351288 C13.1956027,11.2267476 14,12.5194353 14,14 C14,16.209139 12.209139,18 10,18 C7.790861,18 6,16.209139 6,14 C6,12.5194353 6.80439726,11.2267476 8,10.5351288 L8,4.0085302 C8,2.8992496 8.88772964,2 10,2 C11.1045695,2 12,2.90195036 12,4.0085302 L12,10.5351288 Z M14,9.52778699 C15.2274987,10.6264281 16,12.2230004 16,14 C16,17.3137085 13.3137085,20 10,20 C6.6862915,20 4,17.3137085 4,14 C4,12.2230004 4.77250128,10.6264281 6,9.52778699 L6,4.00002024 C6,1.79087006 7.79535615,0 10,0 C12.209139,0 14,1.79445134 14,4.00002024 L14,9.52778699 Z" id="Combined-Shape"></path>
        </g>
    </g>
</svg>