<?xml version="1.0" encoding="UTF-8" standalone="no"?>
<svg width="20px" height="20px" viewBox="0 0 20 20" version="1.1" xmlns="http://www.w3.org/2000/svg" xmlns:xlink="http://www.w3.org/1999/xlink">
    <!-- Generator: Sketch 3.7.2 (28276) - http://www.bohemiancoding.com/sketch -->
    <title>translate</title>
    <desc>Created with Sketch.</desc>
    <defs></defs>
    <g id="Page-1" stroke="none" stroke-width="1" fill="none" fill-rule="evenodd">
        <g id="translate" fill="#000000">
            <path d="M7.41421356,9 L8.29055233,8.12366123 C9.26057586,7.1536377 9.9996249,5.37060807 9.99999986,4 L12,4 L12,2 L7,2 L7,0 L5,0 L5,2 L0,2 L0,4 L7.99999973,4 C7.99956262,4.84020479 7.4713745,6.11441194 6.87633877,6.70944767 L6,7.58578644 L5.12366123,6.70944767 C4.94063656,6.526423 4.76393628,6.27914249 4.6069729,6 L2.40706289,6 L2.40706289,6 C2.71635745,6.81752931 3.17827325,7.59248681 3.70944767,8.12366123 L4.58578644,9 L1.29289322,12.2928932 L2.70710678,13.7071068 L6,10.4142136 L8.81934895,13.2335625 L9.65123928,11.2370257 L7.41421356,9 L7.41421356,9 Z M11.25,17 L10,20 L8,20 L13,8 L14,8 L15,8 L20,20 L18,20 L16.75,17 L11.25,17 L11.25,17 Z M12.0833333,15 L14,10.4 L15.9166667,15 L12.0833333,15 L12.0833333,15 Z" id="Combined-Shape"></path>
        </g>
    </g>
</svg>