<?xml version="1.0" encoding="UTF-8" standalone="no"?>
<svg width="20px" height="20px" viewBox="0 0 20 20" version="1.1" xmlns="http://www.w3.org/2000/svg" xmlns:xlink="http://www.w3.org/1999/xlink">
    <!-- Generator: Sketch 3.7.2 (28276) - http://www.bohemiancoding.com/sketch -->
    <title>travel-bus</title>
    <desc>Created with Sketch.</desc>
    <defs></defs>
    <g id="Page-1" stroke="none" stroke-width="1" fill="none" fill-rule="evenodd">
        <g id="travel-bus" fill="#000000">
            <path d="M13,18 L7,18 L7,19.0010434 C7,19.5527519 6.55733967,20 6.00104344,20 L4.99895656,20 C4.44724809,20 4,19.5573397 4,19.0010434 L4,18 L3.99406028,18 C2.8927712,18 2,17.1073772 2,16.0049107 L2,1.99508929 C2,0.893231902 2.89451376,0 3.99406028,0 L16.0059397,0 C17.1072288,0 18,0.892622799 18,1.99508929 L18,16.0049107 C18,17.1067681 17.1054862,18 16.0059397,18 L16,18 L16,19.0010434 C16,19.5527519 15.5573397,20 15.0010434,20 L13.9989566,20 C13.4472481,20 13,19.5573397 13,19.0010434 L13,18 Z M4,5 L9,5 L9,11 L4,11 L4,5 Z M11,5 L16,5 L16,11 L11,11 L11,5 Z M5,2 L15,2 L15,3 L5,3 L5,2 Z M5.5,16 C6.32842712,16 7,15.3284271 7,14.5 C7,13.6715729 6.32842712,13 5.5,13 C4.67157288,13 4,13.6715729 4,14.5 C4,15.3284271 4.67157288,16 5.5,16 Z M14.5,16 C15.3284271,16 16,15.3284271 16,14.5 C16,13.6715729 15.3284271,13 14.5,13 C13.6715729,13 13,13.6715729 13,14.5 C13,15.3284271 13.6715729,16 14.5,16 Z" id="Combined-Shape"></path>
        </g>
    </g>
</svg>