<?xml version="1.0" encoding="UTF-8" standalone="no"?>
<svg width="20px" height="20px" viewBox="0 0 20 20" version="1.1" xmlns="http://www.w3.org/2000/svg" xmlns:xlink="http://www.w3.org/1999/xlink">
    <!-- Generator: Sketch 3.7.2 (28276) - http://www.bohemiancoding.com/sketch -->
    <title>travel-car</title>
    <desc>Created with Sketch.</desc>
    <defs></defs>
    <g id="Page-1" stroke="none" stroke-width="1" fill="none" fill-rule="evenodd">
        <g id="travel-car" fill="#000000">
            <path d="M2,13.9940809 L2,16.9906311 C2,17.5566468 2.44724809,18 2.99895656,18 L4.00104344,18 C4.55733967,18 5,17.5480902 5,16.9906311 L5,16 L15,16 L15,16.9906311 C15,17.5566468 15.4472481,18 15.9989566,18 L17.0010434,18 C17.5573397,18 18,17.5480902 18,16.9906311 L18,14 C17.9999972,13.9980277 18,11 18,11 L19.0081969,11 C19.5446944,11 20,10.5522847 20,10 C20,9.44386482 19.5559546,9 19.0081969,9 L18,9 L14,2 L6,2 L2,9 L0.99180311,9 C0.455305576,9 0,9.44771525 0,10 C0,10.5561352 0.444045377,11 0.99180311,11 L2,11 L2,13.9940809 Z M15.8571429,9 L13,4 L7,4 L4.14285714,9 L15.8571429,9 L15.8571429,9 Z M5.5,14 C6.32842712,14 7,13.3284271 7,12.5 C7,11.6715729 6.32842712,11 5.5,11 C4.67157288,11 4,11.6715729 4,12.5 C4,13.3284271 4.67157288,14 5.5,14 L5.5,14 Z M14.5,14 C15.3284271,14 16,13.3284271 16,12.5 C16,11.6715729 15.3284271,11 14.5,11 C13.6715729,11 13,11.6715729 13,12.5 C13,13.3284271 13.6715729,14 14.5,14 L14.5,14 Z" id="Combined-Shape"></path>
        </g>
    </g>
</svg>