<?xml version="1.0" encoding="UTF-8" standalone="no"?>
<svg width="20px" height="20px" viewBox="0 0 20 20" version="1.1" xmlns="http://www.w3.org/2000/svg" xmlns:xlink="http://www.w3.org/1999/xlink">
    <!-- Generator: Sketch 3.7.2 (28276) - http://www.bohemiancoding.com/sketch -->
    <title>user-solid-circle</title>
    <desc>Created with Sketch.</desc>
    <defs></defs>
    <g id="Page-1" stroke="none" stroke-width="1" fill="none" fill-rule="evenodd">
        <g id="user-solid-circle" fill="#000000">
            <path d="M10,20 C15.5228475,20 20,15.5228475 20,10 C20,4.4771525 15.5228475,0 10,0 C4.4771525,0 0,4.4771525 0,10 C0,15.5228475 4.4771525,20 10,20 Z M6.99999861,6.00166547 C6.99999861,4.34389141 8.3465151,3 9.99999722,3 C11.6568507,3 12.9999958,4.33902013 12.9999958,6.00166547 L12.9999958,7.99833453 C12.9999958,9.65610859 11.6534793,11 9.99999722,11 C8.34314374,11 6.99999861,9.66097987 6.99999861,7.99833453 L6.99999861,6.00166547 Z M3.34715433,14.4444439 C5.37306718,13.5169611 7.62616222,13 10,13 C12.3738388,13 14.6269347,13.5169615 16.6528458,14.4444437 C15.2177146,16.5884188 12.7737035,18 10,18 C7.22629656,18 4.78228556,16.5884189 3.34715433,14.4444439 L3.34715433,14.4444439 Z" id="Combined-Shape"></path>
        </g>
    </g>
</svg>