<?xml version="1.0" encoding="UTF-8" standalone="no"?>
<svg width="20px" height="20px" viewBox="0 0 20 20" version="1.1" xmlns="http://www.w3.org/2000/svg" xmlns:xlink="http://www.w3.org/1999/xlink">
    <!-- Generator: Sketch 3.7.2 (28276) - http://www.bohemiancoding.com/sketch -->
    <title>video-camera</title>
    <desc>Created with Sketch.</desc>
    <defs></defs>
    <g id="Page-1" stroke="none" stroke-width="1" fill="none" fill-rule="evenodd">
        <g id="video-camera" fill="#000000">
            <path d="M0,3.99406028 C0,2.8927712 0.894513756,2 1.99406028,2 L14.0059397,2 C15.1072288,2 16,2.89451376 16,3.99406028 L16,16.0059397 C16,17.1072288 15.1054862,18 14.0059397,18 L1.99406028,18 C0.892771196,18 0,17.1054862 0,16.0059397 L0,3.99406028 Z M8,14 C10.209139,14 12,12.209139 12,10 C12,7.790861 10.209139,6 8,6 C5.790861,6 4,7.790861 4,10 C4,12.209139 5.790861,14 8,14 Z M8,12 C9.1045695,12 10,11.1045695 10,10 C10,8.8954305 9.1045695,8 8,8 C6.8954305,8 6,8.8954305 6,10 C6,11.1045695 6.8954305,12 8,12 Z M16,7 L20,3 L20,17 L16,13 L16,7 Z" id="Combined-Shape"></path>
        </g>
    </g>
</svg>