<?xml version="1.0" encoding="UTF-8" standalone="no"?>
<svg width="20px" height="20px" viewBox="0 0 20 20" version="1.1" xmlns="http://www.w3.org/2000/svg" xmlns:xlink="http://www.w3.org/1999/xlink">
    <!-- Generator: Sketch 3.7.2 (28276) - http://www.bohemiancoding.com/sketch -->
    <title>bookmark-outline-add</title>
    <desc>Created with Sketch.</desc>
    <defs></defs>
    <g id="Page-1" stroke="none" stroke-width="1" fill="none" fill-rule="evenodd">
        <g id="bookmark-outline-add" fill="#000000">
            <path d="M9,7 L7,7 L7,9 L9,9 L9,11 L11,11 L11,9 L13,9 L13,7 L11,7 L11,5 L9,5 L9,7 L9,7 Z M2,1.99079514 C2,0.891309342 2.89451376,0 3.99406028,0 L16.0059397,0 C17.1072288,0 18,0.898212381 18,1.99079514 L18,20 L10,16 L2,20 L2,1.99079514 L2,1.99079514 Z M4,2 L16,2 L16,17 L10,14 L4,17 L4,2 L4,2 Z" id="Combined-Shape"></path>
        </g>
    </g>
</svg>