<?xml version="1.0" encoding="UTF-8" standalone="no"?>
<svg width="20px" height="20px" viewBox="0 0 20 20" version="1.1" xmlns="http://www.w3.org/2000/svg" xmlns:xlink="http://www.w3.org/1999/xlink">
    <!-- Generator: Sketch 3.7.2 (28276) - http://www.bohemiancoding.com/sketch -->
    <title>chart</title>
    <desc>Created with Sketch.</desc>
    <defs></defs>
    <g id="Page-1" stroke="none" stroke-width="1" fill="none" fill-rule="evenodd">
        <g id="chart" fill="#000000">
            <path d="M5.79310371,13.1131201 C5.92555008,13.380389 6,13.6815002 6,14 C6,15.1045695 5.1045695,16 4,16 C2.8954305,16 2,15.1045695 2,14 C2,12.8954305 2.8954305,12 4,12 C4.04325579,12 4.08619086,12.0013732 4.12876398,12.0040784 L6.20689629,8.88687992 C6.07444992,8.61961096 6,8.31849984 6,8 C6,6.8954305 6.8954305,6 8,6 C9.1045695,6 10,6.8954305 10,8 C10,8.17915933 9.97644275,8.35281657 9.93225676,8.5180432 L11.4819568,10.0677432 C11.6471834,10.0235573 11.8208407,10 12,10 C12.0432558,10 12.0861909,10.0013732 12.128764,10.0040784 L14.2068963,6.88687992 C14.0744499,6.61961096 14,6.31849984 14,6 C14,4.8954305 14.8954305,4 16,4 C17.1045695,4 18,4.8954305 18,6 C18,7.1045695 17.1045695,8 16,8 C15.9567442,8 15.9138091,7.9986268 15.871236,7.99592161 L13.7931037,11.1131201 C13.9255501,11.380389 14,11.6815002 14,12 C14,13.1045695 13.1045695,14 12,14 C10.8954305,14 10,13.1045695 10,12 C10,11.8208407 10.0235573,11.6471834 10.0677432,11.4819568 L8.5180432,9.93225676 C8.35281657,9.97644275 8.17915933,10 8,10 C7.95674421,10 7.91380914,9.9986268 7.87123602,9.99592161 L5.79310371,13.1131201 Z M0,3.99406028 C0,2.8927712 0.898212381,2 1.99079514,2 L18.0092049,2 C19.1086907,2 20,2.89451376 20,3.99406028 L20,16.0059397 C20,17.1072288 19.1017876,18 18.0092049,18 L1.99079514,18 C0.891309342,18 0,17.1054862 0,16.0059397 L0,3.99406028 Z" id="Combined-Shape"></path>
        </g>
    </g>
</svg>