<?xml version="1.0" encoding="UTF-8" standalone="no"?>
<svg width="20px" height="20px" viewBox="0 0 20 20" version="1.1" xmlns="http://www.w3.org/2000/svg" xmlns:xlink="http://www.w3.org/1999/xlink">
    <!-- Generator: Sketch 3.7.2 (28276) - http://www.bohemiancoding.com/sketch -->
    <title>cheveron-outline-down</title>
    <desc>Created with Sketch.</desc>
    <defs></defs>
    <g id="Page-1" stroke="none" stroke-width="1" fill="none" fill-rule="evenodd">
        <g id="cheveron-outline-down" fill="#000000">
            <path d="M9.29289322,12.5355339 L5.75735931,9 L7.17157288,7.58578644 L10,10.4142136 L12.8284271,7.58578644 L14.2426407,9 L10,13.2426407 L9.29289322,12.5355339 L9.29289322,12.5355339 Z M20,10 C20,4.4771525 15.5228475,-5.32907052e-14 10,-5.68434189e-14 C4.4771525,-5.68434189e-14 -5.68434189e-14,4.4771525 -5.68434189e-14,10 C-5.86197757e-14,15.5228475 4.4771525,20 10,20 C15.5228475,20 20,15.5228475 20,10 L20,10 Z M10,2 C5.581722,2 2,5.581722 2,10 C2,14.418278 5.581722,18 10,18 C14.418278,18 18,14.418278 18,10 C18,5.581722 14.418278,2 10,2 L10,2 Z" id="Combined-Shape"></path>
        </g>
    </g>
</svg>