<?xml version="1.0" encoding="UTF-8" standalone="no"?>
<svg width="20px" height="20px" viewBox="0 0 20 20" version="1.1" xmlns="http://www.w3.org/2000/svg" xmlns:xlink="http://www.w3.org/1999/xlink">
    <!-- Generator: Sketch 3.7.2 (28276) - http://www.bohemiancoding.com/sketch -->
    <title>cheveron-outline-right</title>
    <desc>Created with Sketch.</desc>
    <defs></defs>
    <g id="Page-1" stroke="none" stroke-width="1" fill="none" fill-rule="evenodd">
        <g id="cheveron-outline-right" fill="#000000">
            <path d="M12.5355339,10.7071068 L9,14.2426407 L7.58578644,12.8284271 L10.4142136,10 L7.58578644,7.17157288 L9,5.75735931 L13.2426407,10 L12.5355339,10.7071068 L12.5355339,10.7071068 Z M10,-5.68434189e-14 C4.4771525,-5.68434189e-14 -5.68434189e-14,4.4771525 -5.68434189e-14,10 C-5.68434189e-14,15.5228475 4.4771525,20 10,20 C15.5228475,20 20,15.5228475 20,10 C20,4.4771525 15.5228475,-5.32907052e-14 10,-5.68434189e-14 L10,-5.68434189e-14 Z M2,10 C2,14.418278 5.581722,18 10,18 C14.418278,18 18,14.418278 18,10 C18,5.581722 14.418278,2 10,2 C5.581722,2 2,5.581722 2,10 L2,10 Z" id="Combined-Shape"></path>
        </g>
    </g>
</svg>