<?xml version="1.0" encoding="UTF-8" standalone="no"?>
<svg width="20px" height="20px" viewBox="0 0 20 20" version="1.1" xmlns="http://www.w3.org/2000/svg" xmlns:xlink="http://www.w3.org/1999/xlink">
    <!-- Generator: Sketch 3.7.2 (28276) - http://www.bohemiancoding.com/sketch -->
    <title>cog copy</title>
    <desc>Created with Sketch.</desc>
    <defs></defs>
    <g id="Page-1" stroke="none" stroke-width="1" fill="none" fill-rule="evenodd">
        <g id="cog-copy" fill="#000000">
            <path d="M3.93830521,6.49683865 C3.63405147,7.02216933 3.39612833,7.5907092 3.23599205,8.19100199 L5.9747955e-16,9 L9.6487359e-16,11 L3.23599205,11.808998 C3.39612833,12.4092908 3.63405147,12.9778307 3.93830521,13.5031614 L2.22182541,16.363961 L3.63603897,17.7781746 L6.49683865,16.0616948 C7.02216933,16.3659485 7.5907092,16.6038717 8.19100199,16.7640079 L9,20 L11,20 L11.808998,16.7640079 C12.4092908,16.6038717 12.9778307,16.3659485 13.5031614,16.0616948 L16.363961,17.7781746 L17.7781746,16.363961 L16.0616948,13.5031614 C16.3659485,12.9778307 16.6038717,12.4092908 16.7640079,11.808998 L20,11 L20,9 L16.7640079,8.19100199 C16.6038717,7.5907092 16.3659485,7.02216933 16.0616948,6.49683865 L17.7781746,3.63603897 L16.363961,2.22182541 L13.5031614,3.93830521 C12.9778307,3.63405147 12.4092908,3.39612833 11.808998,3.23599205 L11,0 L9,0 L8.19100199,3.23599205 C7.5907092,3.39612833 7.02216933,3.63405147 6.49683865,3.93830521 L3.63603897,2.22182541 L2.22182541,3.63603897 L3.93830521,6.49683865 L3.93830521,6.49683865 Z M10,13 C11.6568542,13 13,11.6568542 13,10 C13,8.34314575 11.6568542,7 10,7 C8.34314575,7 7,8.34314575 7,10 C7,11.6568542 8.34314575,13 10,13 L10,13 Z" id="Combined-Shape"></path>
        </g>
    </g>
</svg>