<?xml version="1.0" encoding="UTF-8" standalone="no"?>
<svg width="20px" height="20px" viewBox="0 0 20 20" version="1.1" xmlns="http://www.w3.org/2000/svg" xmlns:xlink="http://www.w3.org/1999/xlink">
    <!-- Generator: Sketch 3.7.2 (28276) - http://www.bohemiancoding.com/sketch -->
    <title>dashboard</title>
    <desc>Created with Sketch.</desc>
    <defs></defs>
    <g id="Page-1" stroke="none" stroke-width="1" fill="none" fill-rule="evenodd">
        <g id="dashboard" fill="#000000">
            <path d="M11.9321237,9.48208981 C12.110309,10.1493234 11.9376722,10.8907549 11.4142136,11.4142136 C10.633165,12.1952621 9.36683502,12.1952621 8.58578644,11.4142136 C7.80473785,10.633165 7.80473785,9.36683502 8.58578644,8.58578644 C9.10924511,8.06232776 9.8506766,7.88969103 10.5179102,8.06787625 L13.5355339,5.05025253 L14.9497475,6.46446609 L11.9321237,9.48208981 Z M15.5995658,15.7135719 C17.0809102,14.261603 18,12.238134 18,10 C18,5.581722 14.418278,2 10,2 C5.581722,2 2,5.581722 2,10 C2,12.238134 2.91908983,14.261603 4.40043425,15.7135719 C5.99810554,14.63183 7.92526686,14 10,14 C12.0747331,14 14.0018945,14.63183 15.5995658,15.7135719 Z M10,20 C15.5228475,20 20,15.5228475 20,10 C20,4.4771525 15.5228475,0 10,0 C4.4771525,0 0,4.4771525 0,10 C0,15.5228475 4.4771525,20 10,20 Z" id="Combined-Shape"></path>
        </g>
    </g>
</svg>