<?xml version="1.0" encoding="UTF-8" standalone="no"?>
<svg width="20px" height="20px" viewBox="0 0 20 20" version="1.1" xmlns="http://www.w3.org/2000/svg" xmlns:xlink="http://www.w3.org/1999/xlink">
    <!-- Generator: Sketch 3.7.2 (28276) - http://www.bohemiancoding.com/sketch -->
    <title>dial-pad</title>
    <desc>Created with Sketch.</desc>
    <defs></defs>
    <g id="Page-1" stroke="none" stroke-width="1" fill="none" fill-rule="evenodd">
        <g id="dial-pad" fill="#000000">
            <path d="M5,4 C6.1045695,4 7,3.1045695 7,2 C7,0.8954305 6.1045695,0 5,0 C3.8954305,0 3,0.8954305 3,2 C3,3.1045695 3.8954305,4 5,4 Z M10,4 C11.1045695,4 12,3.1045695 12,2 C12,0.8954305 11.1045695,0 10,0 C8.8954305,0 8,0.8954305 8,2 C8,3.1045695 8.8954305,4 10,4 Z M15,4 C16.1045695,4 17,3.1045695 17,2 C17,0.8954305 16.1045695,0 15,0 C13.8954305,0 13,0.8954305 13,2 C13,3.1045695 13.8954305,4 15,4 Z M5,9 C6.1045695,9 7,8.1045695 7,7 C7,5.8954305 6.1045695,5 5,5 C3.8954305,5 3,5.8954305 3,7 C3,8.1045695 3.8954305,9 5,9 Z M10,9 C11.1045695,9 12,8.1045695 12,7 C12,5.8954305 11.1045695,5 10,5 C8.8954305,5 8,5.8954305 8,7 C8,8.1045695 8.8954305,9 10,9 Z M15,9 C16.1045695,9 17,8.1045695 17,7 C17,5.8954305 16.1045695,5 15,5 C13.8954305,5 13,5.8954305 13,7 C13,8.1045695 13.8954305,9 15,9 Z M5,14 C6.1045695,14 7,13.1045695 7,12 C7,10.8954305 6.1045695,10 5,10 C3.8954305,10 3,10.8954305 3,12 C3,13.1045695 3.8954305,14 5,14 Z M10,14 C11.1045695,14 12,13.1045695 12,12 C12,10.8954305 11.1045695,10 10,10 C8.8954305,10 8,10.8954305 8,12 C8,13.1045695 8.8954305,14 10,14 Z M10,20 C11.1045695,20 12,19.1045695 12,18 C12,16.8954305 11.1045695,16 10,16 C8.8954305,16 8,16.8954305 8,18 C8,19.1045695 8.8954305,20 10,20 Z M15,14 C16.1045695,14 17,13.1045695 17,12 C17,10.8954305 16.1045695,10 15,10 C13.8954305,10 13,10.8954305 13,12 C13,13.1045695 13.8954305,14 15,14 Z" id="Combined-Shape"></path>
        </g>
    </g>
</svg>