<?xml version="1.0" encoding="UTF-8" standalone="no"?>
<svg width="20px" height="20px" viewBox="0 0 20 20" version="1.1" xmlns="http://www.w3.org/2000/svg" xmlns:xlink="http://www.w3.org/1999/xlink">
    <!-- Generator: Sketch 3.7.2 (28276) - http://www.bohemiancoding.com/sketch -->
    <title>copy</title>
    <desc>Created with Sketch.</desc>
    <defs></defs>
    <g id="Page-1" stroke="none" stroke-width="1" fill="none" fill-rule="evenodd">
        <g id="copy" fill="#000000">
            <path d="M0,8.00585866 C0,6.89805351 0.897060126,6 2.00585866,6 L11.9941413,6 C13.1019465,6 14,6.89706013 14,8.00585866 L14,17.9941413 C14,19.1019465 13.1029399,20 11.9941413,20 L2.00585866,20 C0.898053512,20 0,19.1029399 0,17.9941413 L0,8.00585866 L0,8.00585866 Z M6,8 L2,8 L2,18 L12,18 L12,14 L15,14 L15,12 L18,12 L18,2 L8,2 L8,5 L6,5 L6,8 L12,8 L12,14 L17.9941413,14 C19.1029399,14 20,13.1019465 20,11.9941413 L20,2.00585866 C20,0.897060126 19.1019465,0 17.9941413,0 L8.00585866,0 C6.89706013,0 6,0.898053512 6,2.00585866 L6,8 Z" id="Combined-Shape"></path>
        </g>
    </g>
</svg>