<?xml version="1.0" encoding="UTF-8" standalone="no"?>
<svg width="20px" height="20px" viewBox="0 0 20 20" version="1.1" xmlns="http://www.w3.org/2000/svg" xmlns:xlink="http://www.w3.org/1999/xlink">
    <!-- Generator: Sketch 3.7.2 (28276) - http://www.bohemiancoding.com/sketch -->
    <title>format-bold</title>
    <desc>Created with Sketch.</desc>
    <defs></defs>
    <g id="Page-1" stroke="none" stroke-width="1" fill="none" fill-rule="evenodd">
        <g id="format-bold" fill="#000000">
            <path d="M3,17 L3,3 L3,1 L11,1 C13.7614237,1 16,3.23857625 16,6 C16,7.19775052 15.5788483,8.2971358 14.8765516,9.15814922 C16.1688098,10.1645499 17,11.7352075 17,13.5 C17,16.5375661 14.5375661,19 11.5,19 L3,19 L3,17 Z M10.5,11 C11.8807119,11 13,12.1192881 13,13.5 C13,14.8807119 11.8807119,16 10.5,16 L7,16 L7,11 L10.5,11 Z M7,4 L9.9951185,4 C11.102384,4 12,4.88772964 12,6 C12,7.1045695 11.1061002,8 9.9951185,8 L7,8 L7,4 Z" id="Combined-Shape"></path>
        </g>
    </g>
</svg>