<?xml version="1.0" encoding="UTF-8" standalone="no"?>
<svg width="20px" height="20px" viewBox="0 0 20 20" version="1.1" xmlns="http://www.w3.org/2000/svg" xmlns:xlink="http://www.w3.org/1999/xlink">
    <!-- Generator: Sketch 3.7.2 (28276) - http://www.bohemiancoding.com/sketch -->
    <title>globe</title>
    <desc>Created with Sketch.</desc>
    <defs></defs>
    <g id="Page-1" stroke="none" stroke-width="1" fill="none" fill-rule="evenodd">
        <g id="globe" fill="#000000">
            <path d="M16.8233515,14.1785238 C17.5696771,12.9624032 18,11.5314552 18,10 C18,6.64262245 15.9318303,3.7682918 13,2.58151705 L13,4.00208688 C13,5.10550383 12.1125667,6 11.000385,6 L10,6 L10,7.00208688 C10,7.74310925 9.59976132,8.38990688 9,8.73483058 L9,10 L11.0020869,10 C12.1055038,10 13,10.8982606 13,11.9979131 L13,13 L14.9940809,13 C15.8081223,13 16.5089083,13.4850007 16.8233515,14.1785238 Z M2.06189375,9 C2.02104333,9.32759424 2,9.66133965 2,10 C2,14.418278 5.581722,18 10,18 L10,16 L8.99791312,16 C7.89449617,16 7,15.1017394 7,14.0020869 L7,12 C5.8954305,12 5,11.1132936 5,10.0018986 L5,9 L2.06189375,9 Z M10,20 C15.5228475,20 20,15.5228475 20,10 C20,4.4771525 15.5228475,0 10,0 C4.4771525,0 0,4.4771525 0,10 C0,15.5228475 4.4771525,20 10,20 Z" id="Combined-Shape"></path>
        </g>
    </g>
</svg>