<?xml version="1.0" encoding="UTF-8" standalone="no"?>
<svg width="20px" height="20px" viewBox="0 0 20 20" version="1.1" xmlns="http://www.w3.org/2000/svg" xmlns:xlink="http://www.w3.org/1999/xlink">
    <!-- Generator: Sketch 3.7.2 (28276) - http://www.bohemiancoding.com/sketch -->
    <title>list-add</title>
    <desc>Created with Sketch.</desc>
    <defs></defs>
    <g id="Page-1" stroke="none" stroke-width="1" fill="none" fill-rule="evenodd">
        <g id="list-add" fill="#000000">
            <path d="M15,9 L12,9 L12,11 L15,11 L15,14 L17,14 L17,11 L20,11 L20,9 L17,9 L17,6 L15,6 L15,9 Z M0,3 L10,3 L10,5 L0,5 L0,3 Z M0,11 L10,11 L10,13 L0,13 L0,11 Z M0,7 L10,7 L10,9 L0,9 L0,7 Z M0,15 L10,15 L10,17 L0,17 L0,15 Z" id="Combined-Shape"></path>
        </g>
    </g>
</svg>