<?xml version="1.0" encoding="UTF-8" standalone="no"?>
<svg width="20px" height="20px" viewBox="0 0 20 20" version="1.1" xmlns="http://www.w3.org/2000/svg" xmlns:xlink="http://www.w3.org/1999/xlink">
    <!-- Generator: Sketch 3.7.2 (28276) - http://www.bohemiancoding.com/sketch -->
    <title>location-shopping</title>
    <desc>Created with Sketch.</desc>
    <defs></defs>
    <g id="Page-1" stroke="none" stroke-width="1" fill="none" fill-rule="evenodd">
        <g id="location-shopping" fill="#000000">
            <path d="M16,6 C16,2.6862915 13.3137085,0 10,0 C6.6862915,0 4,2.6862915 4,6 L4,8 L2,8 L0,20 L20,20 L18,8 L16,8 L16,6 L16,6 Z M14,6 C14,3.790861 12.209139,2 10,2 C7.790861,2 6,3.790861 6,6 L6,8 L14,8 L14,6 L14,6 Z M4,10 L6,10 L6,12 L4,12 L4,10 L4,10 Z M14,10 L16,10 L16,12 L14,12 L14,10 L14,10 Z" id="Combined-Shape"></path>
        </g>
    </g>
</svg>