<?xml version="1.0" encoding="UTF-8" standalone="no"?>
<svg width="20px" height="20px" viewBox="0 0 20 20" version="1.1" xmlns="http://www.w3.org/2000/svg" xmlns:xlink="http://www.w3.org/1999/xlink">
    <!-- Generator: Sketch 3.7.2 (28276) - http://www.bohemiancoding.com/sketch -->
    <title>paste</title>
    <desc>Created with Sketch.</desc>
    <defs></defs>
    <g id="Page-1" stroke="none" stroke-width="1" fill="none" fill-rule="evenodd">
        <g id="paste" fill="#000000">
            <path d="M10.5029699,20 L1.99406028,20 C0.892771196,20 0,19.1054862 0,18.0059397 L0,5.99406028 C0,4.8927712 0.894513756,4 1.99406028,4 L3,4 L3,3 L5.02716314,2.59456737 C5.2250936,1.12946324 6.48064666,0 8,0 C9.51935334,0 10.7749064,1.12946324 10.9728369,2.59456737 L13,3 L13,4 L14.0059397,4 C15.1072288,4 16,4.89451376 16,5.99406028 L16,7 L14,7 L14,6 L13,6 L13,7 L3,7 L3,6 L2,6 L2,18 L7,18 L7,20 L10.5029699,20 L10.5029699,20 Z M8,4 C8.55228475,4 9,3.55228475 9,3 C9,2.44771525 8.55228475,2 8,2 C7.44771525,2 7,2.44771525 7,3 C7,3.55228475 7.44771525,4 8,4 L8,4 Z M10.0058587,8 L17.9941413,8 C19.1019465,8 20,8.89706013 20,10.0058587 L20,17.9941413 C20,19.1019465 19.1029399,20 17.9941413,20 L10.0058587,20 C8.89805351,20 8,19.1029399 8,17.9941413 L8,10.0058587 C8,8.89805351 8.89706013,8 10.0058587,8 L10.0058587,8 Z M10,10 L18,10 L18,18 L10,18 L10,10 L10,10 Z" id="Combined-Shape"></path>
        </g>
    </g>
</svg>