<?xml version="1.0" encoding="UTF-8" standalone="no"?>
<svg width="20px" height="20px" viewBox="0 0 20 20" version="1.1" xmlns="http://www.w3.org/2000/svg" xmlns:xlink="http://www.w3.org/1999/xlink">
    <!-- Generator: Sketch 3.7.2 (28276) - http://www.bohemiancoding.com/sketch -->
    <title>phone</title>
    <desc>Created with Sketch.</desc>
    <defs></defs>
    <g id="Page-1" stroke="none" stroke-width="1" fill="none" fill-rule="evenodd">
        <g id="phone" fill="#000000">
            <path d="M11.1735916,16.8264084 C7.57463481,15.3079672 4.69203285,12.4253652 3.17359164,8.82640836 L5.29408795,6.70591205 C5.68612671,6.31387329 6,5.55641359 6,5.00922203 L6,0.990777969 C6,0.45097518 5.55237094,3.33066907e-16 5.00019251,3.33066907e-16 L1.65110039,3.33066907e-16 L1.00214643,8.96910337e-16 C0.448676237,1.13735153e-15 -1.05725384e-09,0.445916468 -7.33736e-10,1.00108627 C-7.33736e-10,1.00108627 -3.44283713e-14,1.97634814 -3.44283713e-14,3 C-3.44283713e-14,12.3888407 7.61115925,20 17,20 C18.0236519,20 18.9989137,20 18.9989137,20 C19.5517984,20 20,19.5565264 20,18.9978536 L20,18.3488996 L20,14.9998075 C20,14.4476291 19.5490248,14 19.009222,14 L14.990778,14 C14.4435864,14 13.6861267,14.3138733 13.2940879,14.7059121 L11.1735916,16.8264084 Z" id="Combined-Shape"></path>
        </g>
    </g>
</svg>