<?xml version="1.0" encoding="UTF-8" standalone="no"?>
<svg width="20px" height="20px" viewBox="0 0 20 20" version="1.1" xmlns="http://www.w3.org/2000/svg" xmlns:xlink="http://www.w3.org/1999/xlink">
    <!-- Generator: Sketch 3.7.2 (28276) - http://www.bohemiancoding.com/sketch -->
    <title>radar</title>
    <desc>Created with Sketch.</desc>
    <defs></defs>
    <g id="Page-1" stroke="none" stroke-width="1" fill="none" fill-rule="evenodd">
        <g id="radar" fill="#000000">
            <path d="M11,8.26756439 C11.5978014,8.61337381 12,9.25971764 12,10 C12,11.1045695 11.1045695,12 10,12 C8.8954305,12 8,11.1045695 8,10 C8,9.25971764 8.40219863,8.61337381 9,8.26756439 L9,6.12601749 C7.27477279,6.57006028 6,8.13616057 6,10 C6,12.209139 7.790861,14 10,14 C12.209139,14 14,12.209139 14,10 C14,8.8954305 13.5522847,7.8954305 12.8284271,7.17157288 L14.2426407,5.75735931 L14.2426407,5.75735931 C15.3284271,6.84314575 16,8.34314575 16,10 C16,13.3137085 13.3137085,16 10,16 C6.6862915,16 4,13.3137085 4,10 C4,7.02700371 6.16228666,4.55903653 9,4.08295844 L9,2.06189375 C5.05368842,2.55399184 2,5.92038235 2,10 C2,14.418278 5.581722,18 10,18 C14.418278,18 18,14.418278 18,10 C18,7.790861 17.1045695,5.790861 15.6568542,4.34314575 L17.0710678,2.92893219 L17.0710678,2.92893219 C18.8807119,4.73857625 20,7.23857625 20,10 C20,15.5228475 15.5228475,20 10,20 C4.4771525,20 0,15.5228475 0,10 C0,4.64590895 4.20772443,0.274584603 9.49675756,0.012442688 C9.66347686,0.00417986057 9.8312503,0 10,0 C10.3374994,0 10.6710938,0.0167194423 11,0.0493752426 L11,0.0493752426 L11,8.26756439 Z" id="Combined-Shape"></path>
        </g>
    </g>
</svg>