<?xml version="1.0" encoding="UTF-8" standalone="no"?>
<svg width="20px" height="20px" viewBox="0 0 20 20" version="1.1" xmlns="http://www.w3.org/2000/svg" xmlns:xlink="http://www.w3.org/1999/xlink">
    <!-- Generator: Sketch 3.7.2 (28276) - http://www.bohemiancoding.com/sketch -->
    <title>station</title>
    <desc>Created with Sketch.</desc>
    <defs></defs>
    <g id="Page-1" stroke="none" stroke-width="1" fill="none" fill-rule="evenodd">
        <g id="station" fill="#000000">
            <path d="M11,11.7324356 C11.5978014,11.3866262 12,10.7402824 12,10 C12,8.8954305 11.1045695,8 10,8 C8.8954305,8 8,8.8954305 8,10 C8,10.7402824 8.40219863,11.3866262 9,11.7324356 L9,20 L11,20 L11,11.7324356 Z M14.2426407,14.2426407 C15.3284271,13.1568542 16,11.6568542 16,10 C16,6.6862915 13.3137085,4 10,4 C6.6862915,4 4,6.6862915 4,10 C4,11.6568542 4.67157288,13.1568542 5.75735931,14.2426407 L7.17157288,12.8284271 C6.44771525,12.1045695 6,11.1045695 6,10 C6,7.790861 7.790861,6 10,6 C12.209139,6 14,7.790861 14,10 C14,11.1045695 13.5522847,12.1045695 12.8284271,12.8284271 L14.2426407,14.2426407 L14.2426407,14.2426407 Z M17.0710678,17.0710678 C18.8807119,15.2614237 20,12.7614237 20,10 C20,4.4771525 15.5228475,0 10,0 C4.4771525,0 0,4.4771525 0,10 C0,12.7614237 1.11928813,15.2614237 2.92893219,17.0710678 L4.34314575,15.6568542 C2.8954305,14.209139 2,12.209139 2,10 C2,5.581722 5.581722,2 10,2 C14.418278,2 18,5.581722 18,10 C18,12.209139 17.1045695,14.209139 15.6568542,15.6568542 L17.0710678,17.0710678 Z" id="Combined-Shape"></path>
        </g>
    </g>
</svg>