<?xml version="1.0" encoding="UTF-8" standalone="no"?>
<svg width="20px" height="20px" viewBox="0 0 20 20" version="1.1" xmlns="http://www.w3.org/2000/svg" xmlns:xlink="http://www.w3.org/1999/xlink">
    <!-- Generator: Sketch 3.7.2 (28276) - http://www.bohemiancoding.com/sketch -->
    <title>store-front</title>
    <desc>Created with Sketch.</desc>
    <defs></defs>
    <g id="Page-1" stroke="none" stroke-width="1" fill="none" fill-rule="evenodd">
        <g id="store-front" fill="#000000">
            <path d="M18,9.87016923 L18,20 L2,20 L2,9.87077601 C2.30866727,9.95497234 2.64341414,10 3,10 C3.70959284,10 4.3932222,9.81559798 5,9.49198691 L5,14 L15,14 L15,9.49330204 C15.6064249,9.81616801 16.2898957,10 17,10 C17.3565204,10 17.6912816,9.95474687 18,9.87016923 Z M3,0 L0.94921875,6.15234375 C0.423463896,7.72960831 1.34314575,9 3,9 C4.65348288,9 6.14783953,7.66944427 6.33020882,6.02812059 L7,0 L3,0 Z M8,0 L7.30003297,6.29970324 C7.13486445,7.78621995 8.21738979,9 9.71911621,9 L10.2808838,9 C11.7858105,9 12.8656707,7.79103596 12.699967,6.29970324 L12,0 L8,0 Z M13,0 L13.6697912,6.02812059 C13.8524466,7.672019 15.3431458,9 17,9 C18.6534829,9 19.5750203,7.72506087 19.0507813,6.15234375 L17,0 L13,0 Z" id="Combined-Shape"></path>
        </g>
    </g>
</svg>