<?xml version="1.0" encoding="UTF-8" standalone="no"?>
<svg width="20px" height="20px" viewBox="0 0 20 20" version="1.1" xmlns="http://www.w3.org/2000/svg" xmlns:xlink="http://www.w3.org/1999/xlink">
    <!-- Generator: Sketch 3.7.2 (28276) - http://www.bohemiancoding.com/sketch -->
    <title>target</title>
    <desc>Created with Sketch.</desc>
    <defs></defs>
    <g id="Page-1" stroke="none" stroke-width="1" fill="none" fill-rule="evenodd">
        <g id="target" fill="#000000">
            <path d="M17.9381062,9 C17.4868586,5.38128266 14.6187173,2.51314142 11,2.06189375 L11,7 L9,7 L9,2.06189375 C5.38128266,2.51314142 2.51314142,5.38128266 2.06189375,9 L7,9 L7,11 L2.06189375,11 C2.51314142,14.6187173 5.38128266,17.4868586 9,17.9381062 L9,13 L11,13 L11,17.9381062 C14.6187173,17.4868586 17.4868586,14.6187173 17.9381062,11 L13,11 L13,9 L17.9381062,9 Z M10,20 C15.5228475,20 20,15.5228475 20,10 C20,4.4771525 15.5228475,0 10,0 C4.4771525,0 0,4.4771525 0,10 C0,15.5228475 4.4771525,20 10,20 Z" id="Combined-Shape"></path>
        </g>
    </g>
</svg>