<?xml version="1.0" encoding="UTF-8" standalone="no"?>
<svg width="20px" height="20px" viewBox="0 0 20 20" version="1.1" xmlns="http://www.w3.org/2000/svg" xmlns:xlink="http://www.w3.org/1999/xlink">
    <!-- Generator: Sketch 3.7.2 (28276) - http://www.bohemiancoding.com/sketch -->
    <title>dribbble</title>
    <desc>Created with Sketch.</desc>
    <defs></defs>
    <g id="Page-1" stroke="none" stroke-width="1" fill="none" fill-rule="evenodd">
        <g id="dribbble" fill="#FFFFFF">
            <path d="M0,10 C0,8.18666 0.44668,6.51334 1.34,4.98 C2.23334,3.44666 3.44668,2.23334 4.98,1.34 C6.51334,0.44666 8.18668,0 10,0 C11.81334,0 13.48668,0.44666 15.02,1.34 C16.55334,2.23334 17.76668,3.44666 18.66,4.98 C19.55334,6.51334 20,8.18666 20,10 C20,11.81334 19.55334,13.48666 18.66,15.02 C17.76668,16.55334 16.55334,17.76666 15.02,18.66 C13.48668,19.55334 11.81334,20 10,20 C8.18668,20 6.51334,19.55334 4.98,18.66 C3.44668,17.76666 2.23334,16.55334 1.34,15.02 C0.44668,13.48666 0,11.81334 0,10 L0,10 Z M1.66,10 C1.66,12.08 2.36,13.91334 3.76,15.5 C4.4,14.24666 5.41334,13.05334 6.8,11.92 C8.18668,10.78666 9.54,10.07334 10.86,9.78 C10.66,9.31334 10.46668,8.89334 10.28,8.52 C7.98668,9.25334 5.50668,9.62 2.84,9.62 C2.32,9.62 1.93334,9.61334 1.68,9.6 C1.68,9.65334 1.67668,9.72 1.67,9.8 C1.66334,9.88 1.66,9.94666 1.66,10 L1.66,10 Z M1.92,7.94 C2.21334,7.96666 2.64668,7.98 3.22,7.98 C5.44668,7.98 7.56,7.68 9.56,7.08 C8.54668,5.28 7.43334,3.78 6.22,2.58 C5.16668,3.11334 4.26334,3.85334 3.51,4.8 C2.75668,5.74666 2.22668,6.79334 1.92,7.94 L1.92,7.94 Z M4.9,16.58 C6.40668,17.75334 8.10668,18.34 10,18.34 C10.98668,18.34 11.96668,18.15334 12.94,17.78 C12.67334,15.5 12.15334,13.29334 11.38,11.16 C10.15334,11.42666 8.91668,12.1 7.67,13.18 C6.42334,14.26 5.5,15.39334 4.9,16.58 L4.9,16.58 Z M7.96,1.94 C9.13334,3.15334 10.22,4.66666 11.22,6.48 C13.03334,5.72 14.4,4.75334 15.32,3.58 C13.77334,2.3 12,1.66 10,1.66 C9.32,1.66 8.64,1.75334 7.96,1.94 L7.96,1.94 Z M11.94,7.9 C12.14,8.32666 12.36668,8.86666 12.62,9.52 C13.60668,9.42666 14.68,9.38 15.84,9.38 C16.66668,9.38 17.48668,9.4 18.3,9.44 C18.19334,7.62666 17.54,6.01334 16.34,4.6 C15.47334,5.89334 14.00668,6.99334 11.94,7.9 L11.94,7.9 Z M13.12,10.92 C13.8,12.89334 14.26,14.92 14.5,17 C15.55334,16.32 16.41334,15.44666 17.08,14.38 C17.74668,13.31334 18.14668,12.16 18.28,10.92 C17.30668,10.85334 16.42,10.82 15.62,10.82 C14.88668,10.82 14.05334,10.85334 13.12,10.92 L13.12,10.92 Z" id="Shape"></path>
        </g>
    </g>
</svg>